{"title":"Dogma [1999]","uid":12016107,"size":978483203,"categoryP":"video","categoryS":"movies","magnet":"?xt=urn:btih:218cbf553153e631bab58858e8d717170f2ea1d2&amp;dn=Dogma+%5B1999%5D&amp;tr=udp%3A%2F%2Ftracker.openbittorrent.com%3A80&amp;tr=udp%3A%2F%2Fopen.demonii.com%3A1337&amp;tr=udp%3A%2F%2Ftracker.coppersurfer.tk%3A6969&amp;tr=udp%3A%2F%2Fexodus.desync.com%3A6969","seeders":0,"leechers":1,"uploader":"YaMoonSun","files":1,"time":1434316980,"description":"Format                                   : MPEG-4\nFormat profile                           : Base Media / Version 2\nCodec ID                                 : mp42\nFile size                                : 933 MiB\nDuration                                 : 2h 8mn\nOverall bit rate mode                    : Variable\nOverall bit rate                         : 1 018 Kbps\n\nVideo\nID                                       : 1\nFormat                                   : AVC\nFormat/Info                              : Advanced Video Codec\nFormat profile                           : Main@L3\nFormat settings, CABAC                   : Yes\nFormat settings, ReFrames                : 4 frames\nCodec ID                                 : avc1\nCodec ID/Info                            : Advanced Video Coding\nDuration                                 : 2h 8mn\nBit rate                                 : 850 Kbps\nWidth                                    : 720 pixels\nHeight                                   : 480 pixels\nDisplay aspect ratio                     : 16:9\nOriginal display aspect ratio            : 16:9\nFrame rate mode                          : Variable\nFrame rate                               : 23.976 fps\nMinimum frame rate                       : 19.978 fps\nMaximum frame rate                       : 29.970 fps\nColor space                              : YUV\nChroma subsampling                       : 4:2:0\nBit depth                                : 8 bits\nScan type                                : Progressive\nBits/(Pixel*Frame)                       : 0.103\nStream size                              : 779 MiB (84%)\nWriting library                          : x264 core 142 r2479 dd79a61\nColor range                              : Limited\nColor primaries                          : BT.601 NTSC\nTransfer characteristics                 : BT.709\nMatrix coefficients                      : BT.601\n\nAudio\nID                                       : 2\nFormat                                   : AAC\nFormat/Info                              : Advanced Audio Codec\nFormat profile                           : LC\nCodec ID                                 : 40\nDuration                                 : 2h 8mn\nBit rate mode                            : Variable\nBit rate                                 : 160 Kbps\nChannel(s)                               : 2 channels\nChannel(s)_Original                      : 6 channels\nChannel positions                        : Front: L C R, Side: L R, LFE\nSampling rate                            : 48.0 KHz\nCompression mode                         : Lossy\nStream size                              : 147 MiB (16%)\nTitle                                    : Surround / Surround\nLanguage                                 : English\n\nText\nID                                       : 3\nFormat                                   : Timed Text\nMuxing mode                              : sbtl\nCodec ID                                 : tx3g\nDuration                                 : 2h 7mn\nBit rate mode                            : Variable\nBit rate                                 : 95 bps\nStream size                              : 88.9 KiB (0%)\nLanguage                                 : English\n\nMenu\nID                                       : 4\nCodec ID                                 : text\nDuration                                 : 2h 8mn\nLanguage                                 : English\n00:00:00.000                             : Chapter 1\n00:03:42.422                             : Chapter 2\n00:06:51.011                             : Chapter 3\n00:09:51.324                             : Chapter 4\n00:12:39.692                             : Chapter 5\n00:14:09.015                             : Chapter 6\n00:17:57.577                             : Chapter 7\n00:24:28.701                             : Chapter 8\n00:29:23.629                             : Chapter 9\n00:33:44.089                             : Chapter 10\n00:36:40.298                             : Chapter 11\n00:41:19.243                             : Chapter 12\n00:45:18.549                             : Chapter 13\n00:46:54.245                             : Chapter 14\n00:54:05.075                             : Chapter 15\n00:58:10.487                             : Chapter 16\n01:01:50.640                             : Chapter 17\n01:05:37.801                             : Chapter 18\n01:11:48.304                             : Chapter 19\n01:14:10.713                             : Chapter 20\n01:17:46.862                             : Chapter 21\n01:23:54.730                             : Chapter 22\n01:30:33.128                             : Chapter 23\n01:33:36.511                             : Chapter 24\n01:38:13.788                             : Chapter 25\n01:40:33.861                             : Chapter 26\n01:50:03.497                             : Chapter 27\n01:53:53.894                             : Chapter 28\nBit rate mode                            : VBR","torrent":{"xt":"urn:btih:218cbf553153e631bab58858e8d717170f2ea1d2","amp;dn":"Dogma+%5B1999%5D","amp;tr":["udp%3A%2F%2Ftracker.openbittorrent.com%3A80","udp%3A%2F%2Fopen.demonii.com%3A1337","udp%3A%2F%2Ftracker.coppersurfer.tk%3A6969","udp%3A%2F%2Fexodus.desync.com%3A6969"],"infoHash":"218cbf553153e631bab58858e8d717170f2ea1d2","infoHashBuffer":{"type":"Buffer","data":[33,140,191,85,49,83,230,49,186,181,136,88,232,215,23,23,15,46,161,210]},"announce":[],"urlList":[]}}